<svg width="8" height="8" viewBox="0 0 8 8" fill="none"
  xmlns="http://www.w3.org/2000/svg">
  <path d="M7.28777 7.27849C7.74382 6.82303 8 6.20544 8 5.5615C8 4.91756 7.74382 4.29997 7.28777 3.84451C6.9544 3.53221 6.54534 3.31186 6.10082 3.20516C5.65629 3.09846 5.1916 3.10906 4.75242 3.23592C4.73599 3.24054 4.71865 3.24085 4.70206 3.23683C4.68548 3.23281 4.67021 3.22458 4.65773 3.21296C4.64526 3.20133 4.63599 3.18671 4.63083 3.17047C4.62567 3.15423 4.62479 3.13694 4.62827 3.12026C4.84622 2.14267 4.81036 1.37159 4.151 0.713431C3.76676 0.327519 3.26334 0.0822643 2.72216 0.0173007C2.18098 -0.0476628 1.63366 0.0714661 1.16871 0.355441C0.767357 0.602735 0.444871 0.959035 0.238992 1.38262C0.108172 1.65479 0.0295713 1.949 0.00725263 2.25005C-0.00241755 2.37746 -0.00241755 2.50543 0.00725263 2.63284L0.0238049 7.86505C0.0242136 7.89573 0.0360086 7.92516 0.0569093 7.94766C0.0795469 7.97042 0.110305 7.9833 0.142436 7.98346L5.56627 7.99998C5.88564 8.00122 6.20207 7.93905 6.49714 7.81708C6.79221 7.69511 7.06003 7.51576 7.28502 7.2895L7.28777 7.27849Z" fill="#39423F"/>
</svg>
