<svg width="433" height="433" viewBox="0 0 433 433" fill="none" xmlns="http://www.w3.org/2000/svg">
<path d="M394.451 393.948C419.134 369.296 433 335.87 433 301.016C433 266.163 419.134 232.736 394.451 208.084C376.407 191.181 354.267 179.255 330.207 173.479C306.147 167.704 280.995 168.278 257.225 175.144C256.336 175.394 255.397 175.411 254.499 175.193C253.602 174.976 252.775 174.531 252.1 173.901C251.424 173.272 250.923 172.481 250.644 171.602C250.364 170.723 250.317 169.787 250.505 168.884C262.302 115.972 260.361 74.2372 224.673 38.6145C203.876 17.727 176.628 4.45255 147.337 0.936402C118.045 -2.57975 88.422 3.8681 63.2566 19.2382C41.5332 32.623 24.0786 51.9078 12.9355 74.8342C5.8548 89.5656 1.60054 105.49 0.392549 121.784C-0.13085 128.68 -0.13085 135.606 0.392549 142.502L1.28844 425.696C1.31056 427.356 1.94897 428.949 3.08022 430.167C4.30548 431.399 5.97028 432.096 7.70936 432.105L301.274 432.999C318.56 433.066 335.687 429.701 351.658 423.099C367.628 416.498 382.124 406.79 394.302 394.544L394.451 393.948Z" fill="#F7F4F1"/>
</svg>
